<svg xmlns="http://www.w3.org/2000/svg" viewBox="0 0 960 1400" dir="rtl" font-family="Segoe UI, IRANSans, Tahoma, sans-serif">
  <defs>
    <style>
      text { direction: rtl; unicode-bidi: embed; }
      text.ltr { direction: ltr; unicode-bidi: embed; }
    </style>
    <linearGradient id="bg" x1="0" y1="0" x2="0" y2="1">
      <stop offset="0%" stop-color="#f0f4ff"/>
      <stop offset="100%" stop-color="#f9fafb"/>
    </linearGradient>
    <linearGradient id="rootGrad" x1="0" y1="0" x2="1" y2="1">
      <stop offset="0%" stop-color="#1e3a8a"/>
      <stop offset="100%" stop-color="#3b82f6"/>
    </linearGradient>
    <linearGradient id="stepA_Grad" x1="0" y1="0" x2="1" y2="0">
      <stop offset="0%" stop-color="#dc2626"/>
      <stop offset="100%" stop-color="#f87171"/>
    </linearGradient>
    <linearGradient id="stepB_Grad" x1="0" y1="0" x2="1" y2="0">
      <stop offset="0%" stop-color="#d97706"/>
      <stop offset="100%" stop-color="#fbbf24"/>
    </linearGradient>
    <linearGradient id="stepC_Grad" x1="0" y1="0" x2="1" y2="0">
      <stop offset="0%" stop-color="#7c3aed"/>
      <stop offset="100%" stop-color="#a78bfa"/>
    </linearGradient>
    <linearGradient id="stepD_Grad" x1="0" y1="0" x2="1" y2="0">
      <stop offset="0%" stop-color="#0d9488"/>
      <stop offset="100%" stop-color="#5eead4"/>
    </linearGradient>
    <linearGradient id="goalGrad" x1="0" y1="0" x2="1" y2="1">
      <stop offset="0%" stop-color="#1e3a8a"/>
      <stop offset="100%" stop-color="#3b82f6"/>
    </linearGradient>
    <filter id="shadow" x="-10%" y="-10%" width="120%" height="120%">
      <feDropShadow dx="0" dy="3" stdDeviation="4" flood-opacity="0.1"/>
    </filter>
    <filter id="softShadow" x="-10%" y="-10%" width="120%" height="120%">
      <feDropShadow dx="0" dy="1" stdDeviation="2" flood-opacity="0.06"/>
    </filter>
  </defs>

  <!-- Background -->
  <rect width="960" height="1400" fill="url(#bg)"/>

  <!-- ===== ROOT ===== -->
  <rect x="160" y="20" width="640" height="50" rx="14" fill="url(#rootGrad)" filter="url(#shadow)"/>
  <text x="480" y="52" text-anchor="middle" fill="#fff" font-size="16" font-weight="700">گزارش کار کامپوننت‌ها — ۹/۹/۲۶ (ComponentInputCheckBox Refactor)</text>

  <!-- Root to 4 branches -->
  <path d="M 480 70 L 480 90 L 130 90 L 130 110" fill="none" stroke="#dc2626" stroke-width="2.5" stroke-linecap="round"/>
  <path d="M 480 70 L 480 90 L 370 90 L 370 110" fill="none" stroke="#d97706" stroke-width="2.5" stroke-linecap="round"/>
  <path d="M 480 70 L 480 90 L 620 90 L 620 110" fill="none" stroke="#7c3aed" stroke-width="2.5" stroke-linecap="round"/>
  <path d="M 480 70 L 480 90 L 830 90 L 830 110" fill="none" stroke="#0d9488" stroke-width="2.5" stroke-linecap="round"/>

  <!-- ===== STEP A: ComponentLabel Integration ===== -->
  <rect x="30" y="110" width="200" height="42" rx="12" fill="url(#stepA_Grad)" filter="url(#shadow)"/>
  <text x="130" y="137" text-anchor="middle" fill="#fff" font-size="13" font-weight="700">ComponentLabel Integration</text>

  <line x1="130" y1="152" x2="130" y2="580" stroke="#f87171" stroke-width="2" stroke-linecap="round"/>

  <g font-size="11" font-weight="600">
    <path d="M 130 170 L 90 170 L 90 180" fill="none" stroke="#f87171" stroke-width="1.5"/>
    <rect x="10" y="180" width="240" height="32" rx="9" fill="#dbeafe" stroke="#2563eb" stroke-width="1.3" filter="url(#softShadow)"/>
    <text x="130" y="201" text-anchor="middle" fill="#1e40af">🔍 ادغام کامل ComponentLabel</text>

    <path d="M 130 222 L 90 222 L 90 232" fill="none" stroke="#f87171" stroke-width="1.5"/>
    <rect x="10" y="232" width="240" height="32" rx="9" fill="#fef3c7" stroke="#d97706" stroke-width="1.3" filter="url(#softShadow)"/>
    <text x="130" y="253" text-anchor="middle" fill="#92400e">💡 ۱۵ label prop به Props.ts اضافه شد</text>

    <path d="M 130 274 L 90 274 L 90 284" fill="none" stroke="#f87171" stroke-width="1.5"/>
    <rect x="10" y="284" width="240" height="32" rx="9" fill="#fef3c7" stroke="#d97706" stroke-width="1.3" filter="url(#softShadow)"/>
    <text x="130" y="305" text-anchor="middle" fill="#92400e">💡 کلیدهای ترجمه در Keys.ts</text>

    <path d="M 130 326 L 90 326 L 90 336" fill="none" stroke="#f87171" stroke-width="1.5"/>
    <rect x="10" y="336" width="240" height="32" rx="9" fill="#dcfce7" stroke="#16a34a" stroke-width="1.3" filter="url(#softShadow)"/>
    <text x="130" y="357" text-anchor="middle" fill="#15803d">✅ ترجمه Fa.ts + En.ts (۱۵ prop)</text>

    <path d="M 130 378 L 90 378 L 90 388" fill="none" stroke="#f87171" stroke-width="1.5"/>
    <rect x="10" y="388" width="240" height="32" rx="9" fill="#dcfce7" stroke="#16a34a" stroke-width="1.3" filter="url(#softShadow)"/>
    <text x="130" y="409" text-anchor="middle" fill="#15803d">✅ LABEL schema در Schemas.ts</text>

    <path d="M 130 430 L 90 430 L 90 440" fill="none" stroke="#f87171" stroke-width="1.5"/>
    <rect x="10" y="440" width="240" height="32" rx="9" fill="#dcfce7" stroke="#16a34a" stroke-width="1.3" filter="url(#softShadow)"/>
    <text x="130" y="461" text-anchor="middle" fill="#15803d">✅ Step.ts: label child + click event</text>

    <path d="M 130 482 L 90 482 L 90 492" fill="none" stroke="#f87171" stroke-width="1.5"/>
    <rect x="10" y="492" width="240" height="32" rx="9" fill="#dcfce7" stroke="#16a34a" stroke-width="1.3" filter="url(#softShadow)"/>
    <text x="130" y="513" text-anchor="middle" fill="#15803d">✅ renderLabel با ComponentLabel.Component</text>

    <path d="M 130 534 L 90 534 L 90 544" fill="none" stroke="#f87171" stroke-width="1.5"/>
    <rect x="10" y="544" width="240" height="32" rx="9" fill="#dcfce7" stroke="#16a34a" stroke-width="1.3" filter="url(#softShadow)"/>
    <text x="130" y="565" text-anchor="middle" fill="#15803d">✅ Default.ts: example با label props</text>
  </g>

  <!-- ===== STEP B: Computed Sizing ===== -->
  <rect x="270" y="110" width="200" height="42" rx="12" fill="url(#stepB_Grad)" filter="url(#shadow)"/>
  <text x="370" y="137" text-anchor="middle" fill="#fff" font-size="13" font-weight="700">Computed Sizing</text>

  <line x1="370" y1="152" x2="370" y2="630" stroke="#fbbf24" stroke-width="2" stroke-linecap="round"/>

  <g font-size="11" font-weight="600">
    <path d="M 370 170 L 330 170 L 330 180" fill="none" stroke="#fbbf24" stroke-width="1.5"/>
    <rect x="250" y="180" width="240" height="32" rx="9" fill="#fef3c7" stroke="#d97706" stroke-width="1.3" filter="url(#softShadow)"/>
    <text x="370" y="201" text-anchor="middle" fill="#92400e">💡 حذف stdHeight ثابت = ۳۰</text>

    <path d="M 370 222 L 330 222 L 330 232" fill="none" stroke="#fbbf24" stroke-width="1.5"/>
    <rect x="250" y="232" width="240" height="32" rx="9" fill="#dcfce7" stroke="#16a34a" stroke-width="1.3" filter="url(#softShadow)"/>
    <text x="370" y="253" text-anchor="middle" fill="#15803d">✅ getIconBorderSize: iconSize+2*padding</text>

    <path d="M 370 274 L 330 274 L 330 284" fill="none" stroke="#fbbf24" stroke-width="1.5"/>
    <rect x="250" y="284" width="240" height="32" rx="9" fill="#dcfce7" stroke="#16a34a" stroke-width="1.3" filter="url(#softShadow)"/>
    <text x="370" y="305" text-anchor="middle" fill="#15803d">✅ getIconMargin: var(--margin{S})</text>

    <path d="M 370 326 L 330 326 L 330 336" fill="none" stroke="#fbbf24" stroke-width="1.5"/>
    <rect x="250" y="336" width="240" height="32" rx="9" fill="#dcfce7" stroke="#16a34a" stroke-width="1.3" filter="url(#softShadow)"/>
    <text x="370" y="357" text-anchor="middle" fill="#15803d">✅ getIconPadding: var(--padding{S})</text>

    <path d="M 370 378 L 330 378 L 330 388" fill="none" stroke="#fbbf24" stroke-width="1.5"/>
    <rect x="250" y="388" width="240" height="32" rx="9" fill="#dcfce7" stroke="#16a34a" stroke-width="1.3" filter="url(#softShadow)"/>
    <text x="370" y="409" text-anchor="middle" fill="#15803d">✅ getIconOuterWidth: icon+2pad+2mar</text>

    <path d="M 370 430 L 330 430 L 330 440" fill="none" stroke="#fbbf24" stroke-width="1.5"/>
    <rect x="250" y="440" width="240" height="32" rx="9" fill="#dbeafe" stroke="#2563eb" stroke-width="1.3" filter="url(#softShadow)"/>
    <text x="370" y="461" text-anchor="middle" fill="#1e40af">→ همه reactive به SizeName</text>

    <path d="M 370 482 L 330 482 L 330 492" fill="none" stroke="#fbbf24" stroke-width="1.5"/>
    <rect x="250" y="492" width="240" height="32" rx="9" fill="#dbeafe" stroke="#2563eb" stroke-width="1.3" filter="url(#softShadow)"/>
    <text x="370" y="513" text-anchor="middle" fill="#1e40af">→ CoreObservable.App.computed</text>

    <path d="M 370 534 L 330 534 L 330 544" fill="none" stroke="#fbbf24" stroke-width="1.5"/>
    <rect x="250" y="544" width="240" height="32" rx="9" fill="#dbeafe" stroke="#2563eb" stroke-width="1.3" filter="url(#softShadow)"/>
    <text x="370" y="565" text-anchor="middle" fill="#1e40af">→ UtilStyle.Css_IconSize/Padding/Margin</text>

    <path d="M 370 586 L 330 586 L 330 596" fill="none" stroke="#fbbf24" stroke-width="1.5"/>
    <rect x="250" y="596" width="240" height="32" rx="9" fill="#dbeafe" stroke="#2563eb" stroke-width="1.3" filter="url(#softShadow)"/>
    <text x="370" y="617" text-anchor="middle" fill="#1e40af">→ UtilStyle.Css_SizeCalc (calc())</text>
  </g>

  <!-- ===== STEP C: Render Methods ===== -->
  <rect x="520" y="110" width="200" height="42" rx="12" fill="url(#stepC_Grad)" filter="url(#shadow)"/>
  <text x="620" y="137" text-anchor="middle" fill="#fff" font-size="13" font-weight="700">Render Methods</text>

  <line x1="620" y1="152" x2="620" y2="580" stroke="#c4b5fd" stroke-width="2" stroke-linecap="round"/>

  <g font-size="11" font-weight="600">
    <path d="M 620 170 L 580 170 L 580 180" fill="none" stroke="#c4b5fd" stroke-width="1.5"/>
    <rect x="500" y="180" width="240" height="32" rx="9" fill="#ede9fe" stroke="#7c3aed" stroke-width="1.3" filter="url(#softShadow)"/>
    <text x="620" y="201" text-anchor="middle" fill="#5b21b6">🔍 renderMainIcon → ComponentBorder</text>

    <path d="M 620 222 L 580 222 L 580 232" fill="none" stroke="#c4b5fd" stroke-width="1.5"/>
    <rect x="500" y="232" width="240" height="32" rx="9" fill="#dcfce7" stroke="#16a34a" stroke-width="1.3" filter="url(#softShadow)"/>
    <text x="620" y="253" text-anchor="middle" fill="#15803d">✅ width/height = borderSize</text>

    <path d="M 620 274 L 580 274 L 580 284" fill="none" stroke="#c4b5fd" stroke-width="1.5"/>
    <rect x="500" y="284" width="240" height="32" rx="9" fill="#dcfce7" stroke="#16a34a" stroke-width="1.3" filter="url(#softShadow)"/>
    <text x="620" y="305" text-anchor="middle" fill="#15803d">✅ marginLeft/marginRight = marginSize</text>

    <path d="M 620 326 L 580 326 L 580 336" fill="none" stroke="#c4b5fd" stroke-width="1.5"/>
    <rect x="500" y="336" width="240" height="32" rx="9" fill="#dcfce7" stroke="#16a34a" stroke-width="1.3" filter="url(#softShadow)"/>
    <text x="620" y="357" text-anchor="middle" fill="#15803d">✅ renderMainIconCheckbox: padding</text>

    <path d="M 620 378 L 580 378 L 580 388" fill="none" stroke="#c4b5fd" stroke-width="1.5"/>
    <rect x="500" y="388" width="240" height="32" rx="9" fill="#dcfce7" stroke="#16a34a" stroke-width="1.3" filter="url(#softShadow)"/>
    <text x="620" y="409" text-anchor="middle" fill="#15803d">✅ renderMainTitle: lineHeight computed</text>

    <path d="M 620 430 L 580 430 L 580 440" fill="none" stroke="#c4b5fd" stroke-width="1.5"/>
    <rect x="500" y="440" width="240" height="32" rx="9" fill="#dcfce7" stroke="#16a34a" stroke-width="1.3" filter="url(#softShadow)"/>
    <text x="620" y="461" text-anchor="middle" fill="#15803d">✅ width = 100% - iconOuterWidth</text>

    <path d="M 620 482 L 580 482 L 580 492" fill="none" stroke="#c4b5fd" stroke-width="1.5"/>
    <rect x="500" y="492" width="240" height="32" rx="9" fill="#dcfce7" stroke="#16a34a" stroke-width="1.3" filter="url(#softShadow)"/>
    <text x="620" y="513" text-anchor="middle" fill="#15803d">✅ fontSize reactive به SizeName</text>

    <path d="M 620 534 L 580 534 L 580 544" fill="none" stroke="#c4b5fd" stroke-width="1.5"/>
    <rect x="500" y="544" width="240" height="32" rx="9" fill="#fee2e2" stroke="#dc2626" stroke-width="1.3" filter="url(#softShadow)"/>
    <text x="620" y="565" text-anchor="middle" fill="#991b1b">⚠ ComponentBorder height issue</text>
  </g>

  <!-- ===== STEP D: Architecture & Key Findings ===== -->
  <rect x="730" y="110" width="200" height="42" rx="12" fill="url(#stepD_Grad)" filter="url(#shadow)"/>
  <text x="830" y="137" text-anchor="middle" fill="#fff" font-size="13" font-weight="700">معماری و کشف‌ها</text>

  <line x1="830" y1="152" x2="830" y2="530" stroke="#5eead4" stroke-width="2" stroke-linecap="round"/>

  <g font-size="11" font-weight="600">
    <path d="M 830 170 L 870 170 L 870 180" fill="none" stroke="#5eead4" stroke-width="1.5"/>
    <rect x="740" y="180" width="200" height="32" rx="9" fill="#ccfbf1" stroke="#0d9488" stroke-width="1.3" filter="url(#softShadow)"/>
    <text x="840" y="201" text-anchor="middle" fill="#115e59">💡 معماری ماژولار فایل‌ها</text>

    <path d="M 830 222 L 870 222 L 870 232" fill="none" stroke="#5eead4" stroke-width="1.5"/>
    <rect x="740" y="232" width="200" height="32" rx="9" fill="#ccfbf1" stroke="#0d9488" stroke-width="1.3" filter="url(#softShadow)"/>
    <text x="840" y="253" text-anchor="middle" fill="#115e59">💡 Props/Schemas/Methods/Step</text>

    <path d="M 830 274 L 870 274 L 870 284" fill="none" stroke="#5eead4" stroke-width="1.5"/>
    <rect x="740" y="284" width="200" height="32" rx="9" fill="#ccfbf1" stroke="#0d9488" stroke-width="1.3" filter="url(#softShadow)"/>
    <text x="840" y="305" text-anchor="middle" fill="#115e59">💡 Composition: Border+Icon+Label</text>

    <path d="M 830 326 L 870 326 L 870 336" fill="none" stroke="#5eead4" stroke-width="1.5"/>
    <rect x="740" y="336" width="200" height="32" rx="9" fill="#ccfbf1" stroke="#0d9488" stroke-width="1.3" filter="url(#softShadow)"/>
    <text x="840" y="357" text-anchor="middle" fill="#115e59">💡 Reactive به CoreConfig.SizeName</text>

    <path d="M 830 378 L 870 378 L 870 388" fill="none" stroke="#5eead4" stroke-width="1.5"/>
    <rect x="740" y="388" width="200" height="32" rx="9" fill="#ccfbf1" stroke="#0d9488" stroke-width="1.3" filter="url(#softShadow)"/>
    <text x="840" y="409" text-anchor="middle" fill="#115e59">💡 CSS vars: --iconSize/--padding</text>

    <path d="M 830 430 L 870 430 L 870 440" fill="none" stroke="#5eead4" stroke-width="1.5"/>
    <rect x="740" y="440" width="200" height="32" rx="9" fill="#ccfbf1" stroke="#0d9488" stroke-width="1.3" filter="url(#softShadow)"/>
    <text x="840" y="461" text-anchor="middle" fill="#115e59">💡 Event: pr_setChangeValue toggle</text>

    <path d="M 830 482 L 870 482 L 870 492" fill="none" stroke="#5eead4" stroke-width="1.5"/>
    <rect x="740" y="492" width="200" height="32" rx="9" fill="#fee2e2" stroke="#dc2626" stroke-width="1.3" filter="url(#softShadow)"/>
    <text x="840" y="513" text-anchor="middle" fill="#991b1b">⚠ Border height pending fix</text>
  </g>

  <!-- ===== FILES MODIFIED TABLE ===== -->
  <rect x="40" y="620" width="880" height="230" rx="14" fill="#fff" stroke="#e5e7eb" stroke-width="1.5" filter="url(#softShadow)"/>
  <text x="480" y="648" text-anchor="middle" fill="#1e3a8a" font-size="14" font-weight="700">📁 فایل‌های تغییر یافته</text>

  <!-- Table header -->
  <rect x="60" y="660" width="840" height="28" rx="6" fill="#f1f5f9"/>
  <text x="200" y="679" text-anchor="middle" fill="#475569" font-size="11" font-weight="700">فایل</text>
  <text x="480" y="679" text-anchor="middle" fill="#475569" font-size="11" font-weight="700">تغییرات</text>
  <text x="780" y="679" text-anchor="middle" fill="#475569" font-size="11" font-weight="700">وضعیت</text>

  <!-- Row 1 -->
  <text x="200" y="704" text-anchor="middle" fill="#374151" font-size="10" class="ltr">ComponentInputCheckBox.ts</text>
  <text x="480" y="704" text-anchor="middle" fill="#374151" font-size="10">Label integration + computed sizes + render updates</text>
  <text x="780" y="704" text-anchor="middle" fill="#d97706" font-size="11" font-weight="700">⚠</text>

  <!-- Row 2 -->
  <text x="200" y="724" text-anchor="middle" fill="#374151" font-size="10" class="ltr">Keys.ts</text>
  <text x="480" y="724" text-anchor="middle" fill="#374151" font-size="10">۱۵ label prop keys + LABEL schema key</text>
  <text x="780" y="724" text-anchor="middle" fill="#15803d" font-size="11" font-weight="700">✅</text>

  <!-- Row 3 -->
  <text x="200" y="744" text-anchor="middle" fill="#374151" font-size="10" class="ltr">Fa.ts</text>
  <text x="480" y="744" text-anchor="middle" fill="#374151" font-size="10">ترجمه فارسی ۱۵ label prop + schema</text>
  <text x="780" y="744" text-anchor="middle" fill="#15803d" font-size="11" font-weight="700">✅</text>

  <!-- Row 4 -->
  <text x="200" y="764" text-anchor="middle" fill="#374151" font-size="10" class="ltr">En.ts</text>
  <text x="480" y="764" text-anchor="middle" fill="#374151" font-size="10">English translations ۱۵ label prop + schema</text>
  <text x="780" y="764" text-anchor="middle" fill="#15803d" font-size="11" font-weight="700">✅</text>

  <!-- Row 5 -->
  <text x="200" y="784" text-anchor="middle" fill="#374151" font-size="10" class="ltr">Schemas.ts</text>
  <text x="480" y="784" text-anchor="middle" fill="#374151" font-size="10">LABEL schema با همه label props</text>
  <text x="780" y="784" text-anchor="middle" fill="#15803d" font-size="11" font-weight="700">✅</text>

  <!-- Row 6 -->
  <text x="200" y="804" text-anchor="middle" fill="#374151" font-size="10" class="ltr">Step.ts</text>
  <text x="480" y="804" text-anchor="middle" fill="#374151" font-size="10">label child step با click event</text>
  <text x="780" y="804" text-anchor="middle" fill="#15803d" font-size="11" font-weight="700">✅</text>

  <!-- Row 7 -->
  <text x="200" y="824" text-anchor="middle" fill="#374151" font-size="10" class="ltr">Default.ts</text>
  <text x="480" y="824" text-anchor="middle" fill="#374151" font-size="10">Example با labelShow + labelTitle + tooltip</text>
  <text x="780" y="824" text-anchor="middle" fill="#15803d" font-size="11" font-weight="700">✅</text>

  <!-- ===== STATS BOX ===== -->
  <rect x="40" y="870" width="880" height="100" rx="14" fill="#fff" stroke="#e5e7eb" stroke-width="1.5" filter="url(#softShadow)"/>
  <text x="480" y="898" text-anchor="middle" fill="#1e3a8a" font-size="14" font-weight="700">📊 آمار کلی</text>

  <text x="160" y="928" text-anchor="middle" fill="#15803d" font-size="24" font-weight="700">۷</text>
  <text x="160" y="950" text-anchor="middle" fill="#6b7280" font-size="11">فایل تغییر یافته</text>

  <text x="320" y="928" text-anchor="middle" fill="#15803d" font-size="24" font-weight="700">۴</text>
  <text x="320" y="950" text-anchor="middle" fill="#6b7280" font-size="11">computed helper</text>

  <text x="480" y="928" text-anchor="middle" fill="#15803d" font-size="24" font-weight="700">۱۵</text>
  <text x="480" y="950" text-anchor="middle" fill="#6b7280" font-size="11">label prop اضافه شده</text>

  <text x="640" y="928" text-anchor="middle" fill="#15803d" font-size="24" font-weight="700">۳</text>
  <text x="640" y="950" text-anchor="middle" fill="#6b7280" font-size="11">render method به‌روزرسانی</text>

  <text x="800" y="928" text-anchor="middle" fill="#d97706" font-size="24" font-weight="700">۱</text>
  <text x="800" y="950" text-anchor="middle" fill="#6b7280" font-size="11">مشکل باقی‌مانده</text>

  <!-- ===== PENDING ISSUE BOX ===== -->
  <rect x="40" y="990" width="880" height="100" rx="14" fill="#fef3c7" stroke="#d97706" stroke-width="1.5" filter="url(#softShadow)"/>
  <text x="480" y="1018" text-anchor="middle" fill="#92400e" font-size="13" font-weight="700">⚠ مشکل باقی‌مانده</text>
  <text x="480" y="1042" text-anchor="middle" fill="#92400e" font-size="11" font-weight="600">ComponentBorder در ComponentInputCheckBox بدون ارتفاع رندر می‌شود</text>
  <text x="480" y="1062" text-anchor="middle" fill="#92400e" font-size="11" font-weight="600">نیاز به بررسی prop_structureStyles و stylesBind در ComponentBorder</text>

  <!-- ===== ARCHITECTURE DIAGRAM BOX ===== -->
  <rect x="40" y="1110" width="880" height="120" rx="14" fill="#fff" stroke="#e5e7eb" stroke-width="1.5" filter="url(#softShadow)"/>
  <text x="480" y="1138" text-anchor="middle" fill="#1e3a8a" font-size="14" font-weight="700">🏗 ساختار ComponentInputCheckBox</text>

  <rect x="80" y="1155" width="120" height="28" rx="8" fill="#dbeafe" stroke="#2563eb" stroke-width="1.2"/>
  <text x="140" y="1174" text-anchor="middle" fill="#1e40af" font-size="10" font-weight="600">Props.ts</text>

  <rect x="210" y="1155" width="120" height="28" rx="8" fill="#dbeafe" stroke="#2563eb" stroke-width="1.2"/>
  <text x="270" y="1174" text-anchor="middle" fill="#1e40af" font-size="10" font-weight="600">Schemas.ts</text>

  <rect x="340" y="1155" width="120" height="28" rx="8" fill="#dbeafe" stroke="#2563eb" stroke-width="1.2"/>
  <text x="400" y="1174" text-anchor="middle" fill="#1e40af" font-size="10" font-weight="600">Methods.ts</text>

  <rect x="470" y="1155" width="120" height="28" rx="8" fill="#dbeafe" stroke="#2563eb" stroke-width="1.2"/>
  <text x="530" y="1174" text-anchor="middle" fill="#1e40af" font-size="10" font-weight="600">Step.ts</text>

  <rect x="600" y="1155" width="120" height="28" rx="8" fill="#dbeafe" stroke="#2563eb" stroke-width="1.2"/>
  <text x="660" y="1174" text-anchor="middle" fill="#1e40af" font-size="10" font-weight="600">Definition.ts</text>

  <rect x="730" y="1155" width="140" height="28" rx="8" fill="#ccfbf1" stroke="#0d9488" stroke-width="1.2"/>
  <text x="800" y="1174" text-anchor="middle" fill="#115e59" font-size="10" font-weight="600">ComponentInputCheckBox.ts</text>

  <text x="480" y="1208" text-anchor="middle" fill="#6b7280" font-size="10">Composition: ComponentLabel + ComponentBorder + ComponentIcon</text>

  <!-- ===== GOAL BOX ===== -->
  <rect x="80" y="1250" width="800" height="120" rx="16" fill="url(#goalGrad)" filter="url(#shadow)"/>
  <text x="480" y="1280" text-anchor="middle" fill="#fff" font-size="15" font-weight="700">🎯 خلاصه ۹/۹/۲۶ — ComponentInputCheckBox</text>

  <text x="240" y="1310" text-anchor="middle" fill="#bfdbfe" font-size="12" font-weight="700">Label Integration</text>
  <text x="240" y="1330" text-anchor="middle" fill="#dbeafe" font-size="10">۱۵ prop + schema + step + translation</text>
  <text x="240" y="1350" text-anchor="middle" fill="#dbeafe" font-size="10">ComponentLabel.Component composition</text>

  <text x="480" y="1310" text-anchor="middle" fill="#bfdbfe" font-size="12" font-weight="700">Computed Sizing</text>
  <text x="480" y="1330" text-anchor="middle" fill="#dbeafe" font-size="10">۴ helper: borderSize, margin, padding, outerWidth</text>
  <text x="480" y="1350" text-anchor="middle" fill="#dbeafe" font-size="10">Reactive به CoreConfig.Settings.SizeName</text>

  <text x="720" y="1310" text-anchor="middle" fill="#bfdbfe" font-size="12" font-weight="700">Render Updates</text>
  <text x="720" y="1330" text-anchor="middle" fill="#dbeafe" font-size="10">renderMainIcon + IconCheckbox + Title</text>
  <text x="720" y="1350" text-anchor="middle" fill="#dbeafe" font-size="10">⚠ Border height issue pending</text>

</svg>
